<?xml version="1.0" encoding="UTF-8"?>
<svg id="Calque_2" data-name="Calque 2" xmlns="http://www.w3.org/2000/svg" viewBox="0 0 94 94">
  <defs>
    <style>
      .cls-1 {
        fill: #1d1d1b;
      }

      .cls-1, .cls-2 {
        stroke-width: 0px;
      }

      .cls-2 {
        fill: #fff;
      }
    </style>
  </defs>
  <g id="Calque_1-2" data-name="Calque 1">
    <g>
      <path class="cls-1" d="M83.59,91.5c-2.11,0-4.1-.82-5.59-2.32l-31-31-31,31c-1.49,1.49-3.48,2.32-5.59,2.32s-4.1-.82-5.59-2.32c-3.08-3.08-3.08-8.1,0-11.18l31-31L4.82,16c-3.08-3.08-3.08-8.1,0-11.19,1.49-1.49,3.48-2.32,5.59-2.32s4.1.82,5.59,2.32l31,31,31-31c1.49-1.49,3.48-2.32,5.59-2.32s4.1.82,5.59,2.32c1.49,1.49,2.32,3.48,2.32,5.59s-.82,4.1-2.32,5.59l-31,31,31,31c1.49,1.49,2.32,3.48,2.32,5.59s-.82,4.1-2.32,5.59c-1.49,1.49-3.48,2.32-5.59,2.32Z"/>
      <path class="cls-2" d="M83.59,5c1.38,0,2.77.53,3.82,1.58,2.11,2.11,2.11,5.54,0,7.65l-32.77,32.77,32.77,32.77c2.11,2.11,2.11,5.54,0,7.65-1.06,1.06-2.44,1.58-3.82,1.58s-2.77-.53-3.82-1.58l-32.77-32.77L14.24,87.41c-1.06,1.06-2.44,1.58-3.83,1.58s-2.77-.53-3.83-1.58c-2.11-2.11-2.11-5.54,0-7.65l32.77-32.77L6.58,14.23c-2.11-2.11-2.11-5.54,0-7.65,1.06-1.06,2.44-1.58,3.83-1.58s2.77.53,3.83,1.58l32.77,32.77L79.77,6.58c1.06-1.06,2.44-1.58,3.82-1.58M83.59,0c-2.78,0-5.4,1.08-7.36,3.05l-29.23,29.23L17.77,3.05c-1.97-1.97-4.58-3.05-7.36-3.05S5.01,1.08,3.05,3.05C-1.01,7.11-1.01,13.71,3.05,17.77l29.23,29.23L3.05,76.23c-1.97,1.97-3.05,4.58-3.05,7.36s1.08,5.39,3.05,7.36c1.96,1.97,4.58,3.05,7.36,3.05s5.4-1.08,7.36-3.05l29.23-29.23,29.23,29.23c1.96,1.97,4.58,3.05,7.36,3.05s5.4-1.08,7.36-3.05c1.96-1.96,3.05-4.58,3.05-7.36s-1.08-5.4-3.05-7.36l-29.23-29.23,29.23-29.23c1.97-1.97,3.05-4.58,3.05-7.36s-1.08-5.39-3.05-7.36c-1.96-1.97-4.58-3.05-7.36-3.05h0Z"/>
    </g>
  </g>
</svg>