<?xml version="1.0" encoding="UTF-8"?>
<svg id="Calque_2" data-name="Calque 2" xmlns="http://www.w3.org/2000/svg" viewBox="0 0 605.04 718.77">
  <defs>
    <style>
      .cls-1 {
        fill: #2f0;
        stroke-width: 0px;
      }
    </style>
  </defs>
  <g id="Calque_1-2" data-name="Calque 1">
    <path class="cls-1" d="M207.91,718.77c-5.65-1.3-10.67-2.44-15.68-3.6-31.36-7.26-62.73-14.52-94.09-21.79-12.88-2.99-25.85-5.68-38.63-9.07-21.59-5.74-38.96-17.65-51.1-36.68-3.37-5.29-5.94-10.96-7.87-16.93C.2,629.58,0,628.47,0,627.28c.03-31.49.04-62.98.05-94.46,0-6.19,1.12-12.26,1.78-18.38.85-7.86,1.84-15.71,2.77-23.56,1.1-9.26,2.2-18.51,3.29-27.77,1.07-9.09,2.13-18.19,3.2-27.28,1.1-9.34,2.22-18.68,3.32-28.02,1.07-9.09,2.12-18.19,3.19-27.28,1.09-9.26,2.2-18.51,3.29-27.77,1.07-9.09,2.13-18.19,3.2-27.28,1.09-9.26,2.19-18.51,3.29-27.77.91-7.69,1.8-15.38,2.71-23.06,1.09-9.26,2.19-18.51,3.28-27.77.91-7.69,1.81-15.38,2.71-23.06,1.1-9.34,2.22-18.68,3.32-28.02,1.07-9.09,2.13-18.19,3.19-27.28.72-6.2,1.44-12.4,2.17-18.6.08-.64.24-1.27.44-2.3,10.21,18.06,24.69,30.59,44.06,37.15,15.01,5.09,30.26,5.44,45.5,1.21,30.15-8.37,52.13-33.82,56.27-64.23,2.42-17.83-.83-34.67-10.03-50.2-9.14-15.42-22.2-26.37-39.04-33.19,2.18-.95,4.22-1.27,6.21-1.77,45.07-11.41,90.16-22.78,135.22-34.21,13.3-3.37,26.5-3.03,39.76.36,37.23,9.51,74.49,18.9,111.75,28.33,21.77,5.51,43.57,10.91,65.31,16.54,27.55,7.14,49,30.14,54.46,58.08,1.17,5.97,1.63,12.04,2.38,18.06,1.17,9.41,2.25,18.84,3.36,28.26.89,7.52,1.76,15.05,2.65,22.57,1.11,9.42,2.23,18.85,3.34,28.27.9,7.61,1.78,15.21,2.67,22.82,1.1,9.34,2.22,18.68,3.32,28.02.91,7.69,1.79,15.38,2.7,23.06,1.09,9.26,2.2,18.51,3.29,27.77.9,7.6,1.78,15.21,2.68,22.82,1.11,9.42,2.24,18.84,3.35,28.27.89,7.52,1.76,15.05,2.65,22.57,1.11,9.42,2.24,18.84,3.34,28.27,1.08,9.18,2.13,18.35,3.21,27.53,1.08,9.18,2.19,18.35,3.28,27.52,1.07,9.09,2.12,18.19,3.2,27.28,1.09,9.26,2.19,18.51,3.29,27.77.88,7.44,1.68,14.88,1.66,22.4-.07,29.07-.04,58.14-.01,87.22,0,1.69-.24,3.29-.77,4.89-6.45,19.27-18.85,33.63-36.17,43.94-8.88,5.28-18.52,8.58-28.56,10.89-29.35,6.74-58.68,13.56-88.02,20.35-17.34,4.01-34.68,8.03-52.03,12.04-.62.14-1.27.42-2.11.08,12.24-27.86,13.28-56.03,1.72-84.31-8.34-20.42-22.1-36.48-40.67-48.36-36.58-23.41-84.27-21.42-119.06,4.96-12.82,9.72-22.9,21.76-30.21,36.1-7.3,14.33-11.04,29.56-11.29,45.63-.25,16.05,3.04,31.38,10.04,46.44Z"/>
  </g>
</svg>